<svg width="127" height="41" viewBox="0 0 127 41" fill="none" xmlns="http://www.w3.org/2000/svg">
<path d="M38.1089 17.7365C37.239 17.7365 36.5164 17.5891 35.9411 17.2945C35.3658 16.9998 34.9378 16.6069 34.6572 16.1158C34.3766 15.6248 34.2363 15.0916 34.2363 14.5163C34.2363 13.4499 34.6432 12.6291 35.457 12.0538C36.2708 11.4785 37.3793 11.1909 38.7824 11.1909H41.6027V11.0646C41.6027 10.1526 41.3641 9.46505 40.8871 9.00202C40.41 8.52496 39.7716 8.28643 38.9718 8.28643C38.2843 8.28643 37.688 8.46182 37.1828 8.8126C36.6918 9.14935 36.3831 9.64746 36.2568 10.3069H34.4468C34.5169 9.54924 34.7695 8.91082 35.2044 8.39167C35.6534 7.87251 36.2077 7.47964 36.8671 7.21304C37.5266 6.93242 38.2282 6.79211 38.9718 6.79211C40.4311 6.79211 41.5255 7.18498 42.2551 7.97073C42.9988 8.74245 43.3706 9.77374 43.3706 11.0646V17.4839H41.7921L41.6869 15.6107C41.3922 16.2 40.9572 16.7052 40.382 17.1261C39.8207 17.533 39.063 17.7365 38.1089 17.7365ZM38.3825 16.2421C39.056 16.2421 39.6313 16.0667 40.1084 15.716C40.5994 15.3652 40.9713 14.9092 41.2238 14.3479C41.4764 13.7867 41.6027 13.1974 41.6027 12.58V12.5589H38.9297C37.8914 12.5589 37.1548 12.7413 36.7198 13.1062C36.2989 13.4569 36.0884 13.8989 36.0884 14.4321C36.0884 14.9793 36.2848 15.4213 36.6777 15.7581C37.0846 16.0808 37.6529 16.2421 38.3825 16.2421Z" fill="white"/>
<path d="M50.2369 17.7365C49.2407 17.7365 48.3427 17.512 47.5429 17.063C46.7571 16.5999 46.1327 15.9615 45.6697 15.1477C45.2207 14.3199 44.9962 13.3587 44.9962 12.2643C44.9962 11.1698 45.2207 10.2157 45.6697 9.40191C46.1327 8.57407 46.7571 7.93565 47.5429 7.48665C48.3427 7.02362 49.2407 6.79211 50.2369 6.79211C51.4716 6.79211 52.5099 7.11483 53.3518 7.76026C54.2077 8.4057 54.7479 9.26862 54.9724 10.349H53.1624C53.0221 9.70359 52.6783 9.20548 52.1311 8.8547C51.5839 8.48989 50.9455 8.30748 50.2158 8.30748C49.6265 8.30748 49.0723 8.45481 48.5531 8.74946C48.034 9.04412 47.613 9.4861 47.2903 10.0754C46.9676 10.6647 46.8062 11.3943 46.8062 12.2643C46.8062 13.1342 46.9676 13.8638 47.2903 14.4531C47.613 15.0425 48.034 15.4915 48.5531 15.8001C49.0723 16.0948 49.6265 16.2421 50.2158 16.2421C50.9455 16.2421 51.5839 16.0667 52.1311 15.716C52.6783 15.3511 53.0221 14.839 53.1624 14.1795H54.9724C54.7619 15.2319 54.2288 16.0878 53.3729 16.7473C52.5169 17.4067 51.4716 17.7365 50.2369 17.7365Z" fill="white"/>
<path d="M60.6943 17.4839C59.7401 17.4839 58.9895 17.2524 58.4422 16.7893C57.895 16.3263 57.6214 15.4915 57.6214 14.2848V8.539H55.8114V7.04467H57.6214L57.8529 4.5401H59.3894V7.04467H62.4622V8.539H59.3894V14.2848C59.3894 14.9442 59.5226 15.3932 59.7892 15.6318C60.0558 15.8563 60.5259 15.9685 61.1994 15.9685H62.2938V17.4839H60.6943Z" fill="white"/>
<path d="M64.3131 17.4839V7.04467H66.081V17.4839H64.3131Z" fill="white"/>
<path d="M71.5843 17.4839L67.6275 7.04467H69.4796L72.6156 15.7791L75.7726 7.04467H77.5827L73.6259 17.4839H71.5843Z" fill="white"/>
<path d="M83.1246 17.7365C82.1284 17.7365 81.2444 17.512 80.4727 17.063C79.701 16.5999 79.0907 15.9615 78.6417 15.1477C78.2067 14.3339 77.9892 13.3727 77.9892 12.2643C77.9892 11.1698 78.2067 10.2157 78.6417 9.40191C79.0766 8.57407 79.68 7.93565 80.4517 7.48665C81.2374 7.02362 82.1424 6.79211 83.1667 6.79211C84.177 6.79211 85.0469 7.02362 85.7765 7.48665C86.5202 7.93565 87.0884 8.53198 87.4813 9.27563C87.8742 10.0193 88.0706 10.8191 88.0706 11.675C88.0706 11.8293 88.0636 11.9837 88.0496 12.138C88.0496 12.2923 88.0496 12.4677 88.0496 12.6642H79.7361C79.7782 13.464 79.9606 14.1304 80.2833 14.6636C80.6201 15.1828 81.034 15.5756 81.5251 15.8422C82.0302 16.1088 82.5634 16.2421 83.1246 16.2421C83.8542 16.2421 84.4646 16.0738 84.9557 15.737C85.4468 15.4003 85.8046 14.9442 86.0291 14.369H87.776C87.4953 15.3371 86.9552 16.1439 86.1554 16.7893C85.3696 17.4208 84.3594 17.7365 83.1246 17.7365ZM83.1246 8.28643C82.2828 8.28643 81.5321 8.54601 80.8726 9.06517C80.2272 9.57029 79.8554 10.3139 79.7571 11.2961H86.3237C86.2816 10.356 85.9589 9.6194 85.3556 9.08621C84.7522 8.55303 84.0086 8.28643 83.1246 8.28643Z" fill="white"/>
<path d="M38.4229 32.9369C37.3846 32.9369 36.4726 32.6984 35.6869 32.2213C34.9151 31.7443 34.3118 31.0918 33.8768 30.264C33.4559 29.4361 33.2454 28.4961 33.2454 27.4437C33.2454 26.3914 33.4629 25.4583 33.8979 24.6445C34.3328 23.8166 34.9362 23.1712 35.7079 22.7082C36.4796 22.2311 37.3916 21.9926 38.444 21.9926C39.2999 21.9926 40.0576 22.168 40.717 22.5188C41.3765 22.8695 41.8886 23.3606 42.2535 23.992V19.7406H44.0214V32.6844H42.4218L42.2535 30.9585C41.9167 31.4637 41.4326 31.9197 40.8012 32.3266C40.1698 32.7335 39.3771 32.9369 38.4229 32.9369ZM38.6124 31.4005C39.3139 31.4005 39.9313 31.2392 40.4645 30.9164C41.0117 30.5797 41.4326 30.1167 41.7273 29.5273C42.036 28.938 42.1903 28.2505 42.1903 27.4648C42.1903 26.679 42.036 25.9915 41.7273 25.4022C41.4326 24.8129 41.0117 24.3568 40.4645 24.0341C39.9313 23.6974 39.3139 23.529 38.6124 23.529C37.9248 23.529 37.3075 23.6974 36.7602 24.0341C36.2271 24.3568 35.8061 24.8129 35.4974 25.4022C35.2028 25.9915 35.0554 26.679 35.0554 27.4648C35.0554 28.2505 35.2028 28.938 35.4974 29.5273C35.8061 30.1167 36.2271 30.5797 36.7602 30.9164C37.3075 31.2392 37.9248 31.4005 38.6124 31.4005Z" fill="white"/>
<path d="M46.5081 32.6844V22.2451H48.276V32.6844H46.5081Z" fill="white"/>
<path d="M55.5683 32.9369C54.5721 32.9369 53.6741 32.7124 52.8744 32.2634C52.0886 31.8004 51.4642 31.162 51.0012 30.3482C50.5522 29.5203 50.3277 28.5592 50.3277 27.4648C50.3277 26.3703 50.5522 25.4162 51.0012 24.6024C51.4642 23.7746 52.0886 23.1361 52.8744 22.6871C53.6741 22.2241 54.5721 21.9926 55.5683 21.9926C56.8031 21.9926 57.8414 22.3153 58.6833 22.9607C59.5392 23.6062 60.0794 24.4691 60.3039 25.5495H58.4939C58.3535 24.9041 58.0098 24.406 57.4626 24.0552C56.9153 23.6904 56.2769 23.508 55.5473 23.508C54.958 23.508 54.4038 23.6553 53.8846 23.9499C53.3654 24.2446 52.9445 24.6866 52.6218 25.2759C52.2991 25.8652 52.1377 26.5948 52.1377 27.4648C52.1377 28.3347 52.2991 29.0643 52.6218 29.6536C52.9445 30.2429 53.3654 30.6919 53.8846 31.0006C54.4038 31.2953 54.958 31.4426 55.5473 31.4426C56.2769 31.4426 56.9153 31.2672 57.4626 30.9164C58.0098 30.5516 58.3535 30.0395 58.4939 29.38H60.3039C60.0934 30.4324 59.5602 31.2883 58.7043 31.9477C57.8484 32.6072 56.8031 32.9369 55.5683 32.9369Z" fill="white"/>
<path d="M66.0257 32.6844C65.0716 32.6844 64.3209 32.4529 63.7737 31.9898C63.2265 31.5268 62.9529 30.6919 62.9529 29.4853V23.7395H61.1429V22.2451H62.9529L63.1844 19.7406H64.7208V22.2451H67.7937V23.7395H64.7208V29.4853C64.7208 30.1447 64.8541 30.5937 65.1207 30.8322C65.3873 31.0567 65.8574 31.169 66.5309 31.169H67.6253V32.6844H66.0257Z" fill="white"/>
<path d="M69.6445 32.6844V22.2451H71.4125V32.6844H69.6445Z" fill="white"/>
<path d="M78.6627 32.9369C77.6805 32.9369 76.7965 32.7124 76.0108 32.2634C75.225 31.8144 74.6006 31.183 74.1376 30.3692C73.6886 29.5414 73.4641 28.5732 73.4641 27.4648C73.4641 26.3563 73.6956 25.3952 74.1587 24.5813C74.6217 23.7535 75.2461 23.1151 76.0318 22.6661C76.8316 22.2171 77.7226 21.9926 78.7048 21.9926C79.687 21.9926 80.5709 22.2171 81.3567 22.6661C82.1424 23.1151 82.7598 23.7535 83.2088 24.5813C83.6718 25.3952 83.9033 26.3563 83.9033 27.4648C83.9033 28.5732 83.6718 29.5414 83.2088 30.3692C82.7458 31.183 82.1144 31.8144 81.3146 32.2634C80.5288 32.7124 79.6449 32.9369 78.6627 32.9369ZM78.6627 31.4216C79.266 31.4216 79.8273 31.2742 80.3464 30.9796C80.8656 30.6849 81.2865 30.2429 81.6092 29.6536C81.932 29.0643 82.0933 28.3347 82.0933 27.4648C82.0933 26.5948 81.932 25.8652 81.6092 25.2759C81.3005 24.6866 80.8866 24.2446 80.3675 23.9499C79.8483 23.6553 79.2941 23.508 78.7048 23.508C78.1014 23.508 77.5402 23.6553 77.021 23.9499C76.5019 24.2446 76.0809 24.6866 75.7582 25.2759C75.4355 25.8652 75.2741 26.5948 75.2741 27.4648C75.2741 28.3347 75.4355 29.0643 75.7582 29.6536C76.0809 30.2429 76.4949 30.6849 77 30.9796C77.5191 31.2742 78.0734 31.4216 78.6627 31.4216Z" fill="white"/>
<path d="M85.7769 32.6844V22.2451H87.3765L87.4817 24.1183C87.8184 23.4588 88.3025 22.9397 88.9339 22.5609C89.5653 22.182 90.2809 21.9926 91.0807 21.9926C92.3155 21.9926 93.2976 22.3714 94.0273 23.1291C94.7709 23.8728 95.1427 25.0233 95.1427 26.5808V32.6844H93.3748V26.7702C93.3748 24.5954 92.4768 23.508 90.6808 23.508C89.7828 23.508 89.0321 23.8377 88.4288 24.4972C87.8395 25.1426 87.5448 26.0687 87.5448 27.2753V32.6844H85.7769Z" fill="white"/>
<path d="M100.709 32.9369C99.8394 32.9369 99.1168 32.7896 98.5415 32.4949C97.9663 32.2003 97.5383 31.8074 97.2577 31.3163C96.9771 30.8252 96.8368 30.292 96.8368 29.7168C96.8368 28.6504 97.2437 27.8296 98.0575 27.2543C98.8713 26.679 99.9797 26.3914 101.383 26.3914H104.203V26.2651C104.203 25.3531 103.965 24.6655 103.488 24.2025C103.01 23.7254 102.372 23.4869 101.572 23.4869C100.885 23.4869 100.288 23.6623 99.7833 24.0131C99.2922 24.3498 98.9835 24.8479 98.8572 25.5074H97.0472C97.1174 24.7497 97.3699 24.1113 97.8049 23.5921C98.2539 23.073 98.8081 22.6801 99.4676 22.4135C100.127 22.1329 100.829 21.9926 101.572 21.9926C103.032 21.9926 104.126 22.3855 104.856 23.1712C105.599 23.9429 105.971 24.9742 105.971 26.2651V32.6844H104.393L104.287 30.8112C103.993 31.4005 103.558 31.9056 102.982 32.3266C102.421 32.7335 101.663 32.9369 100.709 32.9369ZM100.983 31.4426C101.656 31.4426 102.232 31.2672 102.709 30.9164C103.2 30.5657 103.572 30.1096 103.824 29.5484C104.077 28.9871 104.203 28.3978 104.203 27.7805V27.7594H101.53C100.492 27.7594 99.7552 27.9418 99.3203 28.3066C98.8993 28.6574 98.6889 29.0994 98.6889 29.6326C98.6889 30.1798 98.8853 30.6218 99.2782 30.9585C99.6851 31.2812 100.253 31.4426 100.983 31.4426Z" fill="white"/>
<path d="M108.039 32.6844V22.2451H109.638L109.786 24.2446C110.108 23.5571 110.599 23.0098 111.259 22.6029C111.918 22.196 112.732 21.9926 113.7 21.9926L114.285 23.8447H113.216C112.599 23.8447 112.031 23.957 111.511 24.1815C110.992 24.3919 110.578 24.7567 110.27 25.2759C109.961 25.795 109.807 26.5106 109.807 27.4227V32.6844H108.039Z" fill="white"/>
<path d="M117.406 37.3147L119.994 31.6741H119.384L115.238 22.2451H117.153L120.605 30.3692L124.267 22.2451H126.098L119.258 37.3147H117.406Z" fill="white"/>
<path fill-rule="evenodd" clip-rule="evenodd" d="M15.6614 6.00359C16.3627 5.13744 17.3203 4.51558 18.3969 4.22712C19.4734 3.93866 20.6137 3.99841 21.6542 4.39782C22.6947 4.79723 23.582 5.51579 24.189 6.45051C24.796 7.38522 25.0915 8.48811 25.0332 9.60111C24.9749 10.7141 24.5657 11.7801 23.8643 12.6462C23.1921 13.4763 22.2846 14.082 21.2626 14.3849L23.5046 17.8208C24.8507 17.228 26.0432 16.3207 26.9774 15.1671C28.2111 13.6436 28.9309 11.7685 29.0335 9.81076C29.1361 7.85298 28.6163 5.91298 27.5485 4.2688C26.4808 2.62462 24.9199 1.36067 23.0897 0.658105C21.2595 -0.0444612 19.2538 -0.149575 17.3601 0.35783C15.4665 0.865234 13.782 1.95911 12.5483 3.48267C11.3145 5.00623 10.5948 6.88127 10.4922 8.83904C10.3896 10.7968 10.9094 12.7368 11.9771 14.381L11.9826 14.3895L11.9883 14.398L18.2939 23.8957L21.6312 21.6801L15.3316 12.1915C14.728 11.2584 14.4343 10.1586 14.4924 9.04869C14.5508 7.9357 14.96 6.86974 15.6614 6.00359Z" fill="#FF1361"/>
<path d="M19.9819 22.8385C21.1185 24.73 21.4572 26.9956 20.9234 29.1368C20.3896 31.278 19.0271 33.1195 17.1355 34.2561C15.244 35.3928 12.9784 35.7314 10.8372 35.1976C8.696 34.6639 6.85453 33.3013 5.7179 31.4098C4.58128 29.5183 4.24261 27.2527 4.7764 25.1115C5.31019 22.9703 6.67271 21.1288 8.56423 19.9922C10.4557 18.8555 12.7213 18.5169 14.8625 19.0507C17.0038 19.5845 18.8452 20.947 19.9819 22.8385L19.9819 22.8385Z" stroke="#FF1361" stroke-width="4.00578"/>
</svg>
