<svg width="127" height="42" viewBox="0 0 127 42" fill="none" xmlns="http://www.w3.org/2000/svg">
<path d="M38.1089 18.7076C37.239 18.7076 36.5164 18.5603 35.9411 18.2656C35.3658 17.9709 34.9379 17.5781 34.6572 17.087C34.3766 16.5959 34.2363 16.0627 34.2363 15.4874C34.2363 14.421 34.6432 13.6002 35.457 13.0249C36.2708 12.4497 37.3793 12.162 38.7824 12.162H41.6027V12.0357C41.6027 11.1237 41.3642 10.4362 40.8871 9.97315C40.41 9.49609 39.7716 9.25756 38.9718 9.25756C38.2843 9.25756 37.688 9.43295 37.1829 9.78373C36.6918 10.1205 36.3831 10.6186 36.2568 11.2781H34.4468C34.5169 10.5204 34.7695 9.88195 35.2045 9.3628C35.6535 8.84364 36.2077 8.45077 36.8672 8.18418C37.5266 7.90355 38.2282 7.76324 38.9718 7.76324C40.4311 7.76324 41.5255 8.15611 42.2551 8.94186C42.9988 9.71358 43.3706 10.7449 43.3706 12.0357V18.455H41.7921L41.6869 16.5819C41.3922 17.1712 40.9573 17.6763 40.382 18.0972C39.8207 18.5041 39.063 18.7076 38.1089 18.7076ZM38.3825 17.2133C39.056 17.2133 39.6313 17.0379 40.1084 16.6871C40.5995 16.3363 40.9713 15.8803 41.2238 15.319C41.4764 14.7578 41.6027 14.1685 41.6027 13.5511V13.5301H38.9297C37.8914 13.5301 37.1548 13.7125 36.7198 14.0773C36.2989 14.4281 36.0884 14.87 36.0884 15.4032C36.0884 15.9505 36.2849 16.3924 36.6777 16.7292C37.0846 17.0519 37.6529 17.2133 38.3825 17.2133Z" fill="#333333"/>
<path d="M50.2369 18.7076C49.2407 18.7076 48.3427 18.4831 47.5429 18.0341C46.7572 17.5711 46.1328 16.9326 45.6697 16.1188C45.2207 15.291 44.9962 14.3298 44.9962 13.2354C44.9962 12.141 45.2207 11.1869 45.6697 10.373C46.1328 9.5452 46.7572 8.90678 47.5429 8.45778C48.3427 7.99475 49.2407 7.76324 50.2369 7.76324C51.4716 7.76324 52.5099 8.08596 53.3518 8.73139C54.2077 9.37683 54.7479 10.2397 54.9724 11.3202H53.1624C53.0221 10.6747 52.6783 10.1766 52.1311 9.82583C51.5839 9.46102 50.9455 9.27861 50.2158 9.27861C49.6265 9.27861 49.0723 9.42594 48.5531 9.72059C48.034 10.0152 47.6131 10.4572 47.2903 11.0465C46.9676 11.6359 46.8063 12.3655 46.8063 13.2354C46.8063 14.1053 46.9676 14.835 47.2903 15.4243C47.6131 16.0136 48.034 16.4626 48.5531 16.7713C49.0723 17.0659 49.6265 17.2133 50.2158 17.2133C50.9455 17.2133 51.5839 17.0379 52.1311 16.6871C52.6783 16.3223 53.0221 15.8101 53.1624 15.1507H54.9724C54.762 16.203 54.2288 17.0589 53.3729 17.7184C52.517 18.3779 51.4716 18.7076 50.2369 18.7076Z" fill="#333333"/>
<path d="M60.6943 18.455C59.7402 18.455 58.9895 18.2235 58.4423 17.7605C57.895 17.2974 57.6214 16.4626 57.6214 15.2559V9.51013H55.8114V8.0158H57.6214L57.853 5.51123H59.3894V8.0158H62.4622V9.51013H59.3894V15.2559C59.3894 15.9154 59.5227 16.3644 59.7893 16.6029C60.0559 16.8274 60.5259 16.9397 61.1994 16.9397H62.2938V18.455H60.6943Z" fill="#333333"/>
<path d="M64.3131 18.455V8.0158H66.081V18.455H64.3131Z" fill="#333333"/>
<path d="M71.5843 18.455L67.6275 8.0158H69.4797L72.6156 16.7502L75.7727 8.0158H77.5827L73.6259 18.455H71.5843Z" fill="#333333"/>
<path d="M83.1246 18.7076C82.1284 18.7076 81.2445 18.4831 80.4727 18.0341C79.701 17.5711 79.0907 16.9326 78.6417 16.1188C78.2067 15.305 77.9892 14.3439 77.9892 13.2354C77.9892 12.141 78.2067 11.1869 78.6417 10.373C79.0766 9.5452 79.68 8.90678 80.4517 8.45778C81.2374 7.99475 82.1425 7.76324 83.1667 7.76324C84.177 7.76324 85.0469 7.99475 85.7765 8.45778C86.5202 8.90678 87.0885 9.50311 87.4813 10.2468C87.8742 10.9904 88.0706 11.7902 88.0706 12.6461C88.0706 12.8004 88.0636 12.9548 88.0496 13.1091C88.0496 13.2635 88.0496 13.4389 88.0496 13.6353H79.7361C79.7782 14.4351 79.9606 15.1016 80.2833 15.6347C80.6201 16.1539 81.034 16.5468 81.5251 16.8134C82.0302 17.08 82.5634 17.2133 83.1246 17.2133C83.8543 17.2133 84.4646 17.0449 84.9557 16.7081C85.4468 16.3714 85.8046 15.9154 86.0291 15.3401H87.776C87.4954 16.3082 86.9552 17.115 86.1554 17.7605C85.3696 18.3919 84.3594 18.7076 83.1246 18.7076ZM83.1246 9.25756C82.2828 9.25756 81.5321 9.51714 80.8726 10.0363C80.2272 10.5414 79.8554 11.2851 79.7572 12.2673H86.3238C86.2817 11.3272 85.9589 10.5905 85.3556 10.0573C84.7523 9.52416 84.0086 9.25756 83.1246 9.25756Z" fill="#333333"/>
<path d="M38.423 33.9081C37.3846 33.9081 36.4726 33.6695 35.6869 33.1925C34.9152 32.7154 34.3118 32.063 33.8768 31.2351C33.4559 30.4073 33.2454 29.4672 33.2454 28.4148C33.2454 27.3625 33.4629 26.4294 33.8979 25.6156C34.3329 24.7878 34.9362 24.1423 35.7079 23.6793C36.4796 23.2022 37.3917 22.9637 38.444 22.9637C39.2999 22.9637 40.0576 23.1391 40.7171 23.4899C41.3765 23.8407 41.8887 24.3318 42.2535 24.9632V20.7117H44.0214V33.6555H42.4219L42.2535 31.9297C41.9167 32.4348 41.4326 32.8908 40.8012 33.2977C40.1698 33.7046 39.3771 33.9081 38.423 33.9081ZM38.6124 32.3716C39.3139 32.3716 39.9313 32.2103 40.4645 31.8876C41.0117 31.5508 41.4326 31.0878 41.7273 30.4985C42.036 29.9092 42.1903 29.2216 42.1903 28.4359C42.1903 27.6501 42.036 26.9626 41.7273 26.3733C41.4326 25.784 41.0117 25.328 40.4645 25.0053C39.9313 24.6685 39.3139 24.5001 38.6124 24.5001C37.9248 24.5001 37.3075 24.6685 36.7603 25.0053C36.2271 25.328 35.8061 25.784 35.4974 26.3733C35.2028 26.9626 35.0555 27.6501 35.0555 28.4359C35.0555 29.2216 35.2028 29.9092 35.4974 30.4985C35.8061 31.0878 36.2271 31.5508 36.7603 31.8876C37.3075 32.2103 37.9248 32.3716 38.6124 32.3716Z" fill="#333333"/>
<path d="M46.5081 33.6555V23.2163H48.2761V33.6555H46.5081Z" fill="#333333"/>
<path d="M55.5684 33.9081C54.5721 33.9081 53.6741 33.6836 52.8744 33.2346C52.0886 32.7715 51.4642 32.1331 51.0012 31.3193C50.5522 30.4915 50.3277 29.5303 50.3277 28.4359C50.3277 27.3415 50.5522 26.3873 51.0012 25.5735C51.4642 24.7457 52.0886 24.1073 52.8744 23.6583C53.6741 23.1952 54.5721 22.9637 55.5684 22.9637C56.8031 22.9637 57.8414 23.2864 58.6833 23.9319C59.5392 24.5773 60.0794 25.4402 60.3039 26.5206H58.4939C58.3536 25.8752 58.0098 25.3771 57.4626 25.0263C56.9154 24.6615 56.2769 24.4791 55.5473 24.4791C54.958 24.4791 54.4038 24.6264 53.8846 24.9211C53.3655 25.2157 52.9445 25.6577 52.6218 26.247C52.2991 26.8363 52.1377 27.566 52.1377 28.4359C52.1377 29.3058 52.2991 30.0354 52.6218 30.6248C52.9445 31.2141 53.3655 31.6631 53.8846 31.9718C54.4038 32.2664 54.958 32.4137 55.5473 32.4137C56.2769 32.4137 56.9154 32.2383 57.4626 31.8876C58.0098 31.5228 58.3536 31.0106 58.4939 30.3511H60.3039C60.0934 31.4035 59.5602 32.2594 58.7043 32.9189C57.8484 33.5783 56.8031 33.9081 55.5684 33.9081Z" fill="#333333"/>
<path d="M66.0257 33.6555C65.0716 33.6555 64.321 33.424 63.7737 32.961C63.2265 32.4979 62.9529 31.6631 62.9529 30.4564V24.7106H61.1429V23.2163H62.9529L63.1844 20.7117H64.7208V23.2163H67.7937V24.7106H64.7208V30.4564C64.7208 31.1159 64.8541 31.5648 65.1207 31.8034C65.3873 32.0279 65.8574 32.1401 66.5309 32.1401H67.6253V33.6555H66.0257Z" fill="#333333"/>
<path d="M69.6446 33.6555V23.2163H71.4125V33.6555H69.6446Z" fill="#333333"/>
<path d="M78.6627 33.9081C77.6805 33.9081 76.7965 33.6836 76.0108 33.2346C75.225 32.7856 74.6007 32.1542 74.1376 31.3403C73.6886 30.5125 73.4641 29.5444 73.4641 28.4359C73.4641 27.3274 73.6956 26.3663 74.1587 25.5525C74.6217 24.7246 75.2461 24.0862 76.0318 23.6372C76.8316 23.1882 77.7226 22.9637 78.7048 22.9637C79.687 22.9637 80.5709 23.1882 81.3567 23.6372C82.1424 24.0862 82.7598 24.7246 83.2088 25.5525C83.6718 26.3663 83.9034 27.3274 83.9034 28.4359C83.9034 29.5444 83.6718 30.5125 83.2088 31.3403C82.7458 32.1542 82.1144 32.7856 81.3146 33.2346C80.5288 33.6836 79.6449 33.9081 78.6627 33.9081ZM78.6627 32.3927C79.266 32.3927 79.8273 32.2454 80.3464 31.9507C80.8656 31.6561 81.2865 31.2141 81.6092 30.6248C81.932 30.0354 82.0933 29.3058 82.0933 28.4359C82.0933 27.566 81.932 26.8363 81.6092 26.247C81.3006 25.6577 80.8866 25.2157 80.3675 24.9211C79.8483 24.6264 79.2941 24.4791 78.7048 24.4791C78.1015 24.4791 77.5402 24.6264 77.021 24.9211C76.5019 25.2157 76.081 25.6577 75.7582 26.247C75.4355 26.8363 75.2742 27.566 75.2742 28.4359C75.2742 29.3058 75.4355 30.0354 75.7582 30.6248C76.081 31.2141 76.4949 31.6561 77 31.9507C77.5192 32.2454 78.0734 32.3927 78.6627 32.3927Z" fill="#333333"/>
<path d="M85.7769 33.6555V23.2163H87.3765L87.4817 25.0894C87.8185 24.43 88.3025 23.9108 88.9339 23.532C89.5653 23.1531 90.2809 22.9637 91.0807 22.9637C92.3155 22.9637 93.2977 23.3426 94.0273 24.1002C94.7709 24.8439 95.1428 25.9945 95.1428 27.5519V33.6555H93.3748V27.7413C93.3748 25.5665 92.4768 24.4791 90.6808 24.4791C89.7828 24.4791 89.0322 24.8088 88.4288 25.4683C87.8395 26.1137 87.5449 27.0398 87.5449 28.2465V33.6555H85.7769Z" fill="#333333"/>
<path d="M100.709 33.9081C99.8394 33.9081 99.1168 33.7607 98.5416 33.4661C97.9663 33.1714 97.5383 32.7785 97.2577 32.2875C96.9771 31.7964 96.8368 31.2632 96.8368 30.6879C96.8368 29.6215 97.2437 28.8007 98.0575 28.2254C98.8713 27.6501 99.9798 27.3625 101.383 27.3625H104.203V27.2362C104.203 26.3242 103.965 25.6367 103.488 25.1736C103.01 24.6966 102.372 24.458 101.572 24.458C100.885 24.458 100.288 24.6334 99.7833 24.9842C99.2922 25.321 98.9835 25.8191 98.8573 26.4785H97.0472C97.1174 25.7208 97.37 25.0824 97.8049 24.5633C98.2539 24.0441 98.8082 23.6512 99.4676 23.3847C100.127 23.104 100.829 22.9637 101.572 22.9637C103.032 22.9637 104.126 23.3566 104.856 24.1423C105.599 24.9141 105.971 25.9453 105.971 27.2362V33.6555H104.393L104.287 31.7823C103.993 32.3716 103.558 32.8768 102.982 33.2977C102.421 33.7046 101.664 33.9081 100.709 33.9081ZM100.983 32.4137C101.656 32.4137 102.232 32.2383 102.709 31.8876C103.2 31.5368 103.572 31.0808 103.824 30.5195C104.077 29.9583 104.203 29.369 104.203 28.7516V28.7305H101.53C100.492 28.7305 99.7553 28.9129 99.3203 29.2778C98.8994 29.6285 98.6889 30.0705 98.6889 30.6037C98.6889 31.1509 98.8853 31.5929 99.2782 31.9297C99.6851 32.2524 100.253 32.4137 100.983 32.4137Z" fill="#333333"/>
<path d="M108.039 33.6555V23.2163H109.638L109.786 25.2157C110.108 24.5282 110.599 23.981 111.259 23.5741C111.918 23.1672 112.732 22.9637 113.7 22.9637L114.285 24.8158H113.216C112.599 24.8158 112.031 24.9281 111.511 25.1526C110.992 25.3631 110.578 25.7279 110.27 26.247C109.961 26.7662 109.807 27.4818 109.807 28.3938V33.6555H108.039Z" fill="#333333"/>
<path d="M117.406 38.2858L119.995 32.6453H119.384L115.238 23.2163H117.153L120.605 31.3403L124.267 23.2163H126.098L119.258 38.2858H117.406Z" fill="#333333"/>
<path fill-rule="evenodd" clip-rule="evenodd" d="M15.6613 6.97478C16.3627 6.10863 17.3203 5.48677 18.3969 5.19831C19.4734 4.90985 20.6137 4.9696 21.6542 5.36901C22.6946 5.76842 23.582 6.48698 24.189 7.4217C24.796 8.35641 25.0915 9.45931 25.0332 10.5723C24.9749 11.6853 24.5657 12.7513 23.8643 13.6174C23.1921 14.4475 22.2846 15.0532 21.2626 15.3561L23.5046 18.792C24.8507 18.1992 26.0432 17.2919 26.9774 16.1383C28.2111 14.6148 28.9309 12.7397 29.0335 10.7819C29.1361 8.82417 28.6163 6.88417 27.5485 5.23999C26.4808 3.59581 24.9199 2.33186 23.0897 1.6293C21.2594 0.92673 19.2538 0.821617 17.3601 1.32902C15.4664 1.83643 13.782 2.9303 12.5483 4.45386C11.3145 5.97743 10.5948 7.85246 10.4922 9.81024C10.3895 11.768 10.9094 13.708 11.9771 15.3522L11.9826 15.3607L11.9883 15.3692L18.2939 24.8669L21.6312 22.6513L15.3316 13.1626C14.728 12.2296 14.4343 11.1298 14.4924 10.0199C14.5508 8.90689 14.96 7.84093 15.6613 6.97478Z" fill="#FF1361"/>
<path d="M19.9819 23.8098C21.1185 25.7013 21.4572 27.9669 20.9234 30.1081C20.3896 32.2493 19.0271 34.0908 17.1356 35.2275C15.244 36.3641 12.9785 36.7027 10.8373 36.169C8.69603 35.6352 6.85456 34.2726 5.71793 32.3811C4.58131 30.4896 4.24264 28.224 4.77643 26.0828C5.31022 23.9416 6.67274 22.1001 8.56426 20.9635C10.4558 19.8269 12.7213 19.4882 14.8626 20.022C17.0038 20.5558 18.8453 21.9183 19.9819 23.8098L19.9819 23.8098Z" stroke="#FF1361" stroke-width="4.00578"/>
</svg>
